# AST/ASF file generated using VICON BodyLanguage
# -----------------------------------------------
:version 1.10
:name VICON
:units
  mass 1.0
  length 0.45
  angle deg
:documentation
   .ast/.asf automatically generated from VICON data using
   VICON BodyBuilder and BodyLanguage model FoxedUp or BRILLIANT.MOD
:root
   order TX TY TZ RX RY RZ
   axis XYZ
   position 0 0 0  
   orientation 0 0 0 
:bonedata
  begin
     id 1 
     name lhipjoint
     direction 0.611804 -0.747784 0.257906 
     length 2.29243 
     axis 0 0 0  XYZ
  end
  begin
     id 2 
     name lfemur
     direction 0.34202 -0.939693 0  
     length 7.31159  
     axis 0 0 20  XYZ
    dof rx ry rz
    limits (-160.0 20.0)
           (-70.0 70.0)
           (-60.0 70.0)
  end
  begin
     id 3 
     name ltibia
     direction 0.34202 -0.939693 0   
     length 7.33391   
     axis 0 0 20   XYZ
    dof rx
    limits (-10.0 170.0)
  end
  begin
     id 4 
     name lfoot
     direction 0.122263 -0.335914 0.933924   
     length 1.76083   
     axis -90 7.62852e-016 20   XYZ
    dof rx rz
    limits (-45.0 90.0)
           (-70.0 20.0)
  end
  begin
     id 5 
     name ltoes
     direction 1.53533e-011 -4.2177e-011 1   
     length 0.879206   
     axis -90 7.62852e-016 20   XYZ
    dof rx
    limits (-90.0 20.0)
  end
  begin
     id 6 
     name rhipjoint
     direction -0.646469 -0.721248 0.248754   
     length 2.37677  
     axis 0 0 0  XYZ 
  end
  begin
     id 7 
     name rfemur
     direction -0.34202 -0.939693 0   
     length 7.18623   
     axis 0 0 -20   XYZ
    dof rx ry rz
    limits (-160.0 20.0)
           (-70.0 70.0)
           (-70.0 60.0)
  end
  begin
     id 8 
     name rtibia
     direction -0.34202 -0.939693 0   
     length 7.36567   
     axis 0 0 -20   XYZ
    dof rx
    limits (-10.0 170.0)
 end
 begin
     id 9 
     name rfoot
     direction -0.126681 -0.348054 0.928876   
     length 1.71902  
     axis -90 -7.62852e-016 -20   XYZ
    dof rx rz
    limits (-45.0 90.0)
           (-20.0 70.0)
  end
  begin
     id 10 
     name rtoes
     direction -1.53551e-011 -4.21898e-011 1   
     length 0.857792   
     axis -90 -7.62852e-016 -20   XYZ
    dof rx
    limits (-90.0 20.0)
  end
  begin
     id 11 
     name lowerback
     direction 0.0106509 0.999778 0.0181844   
     length 2.07668   
     axis 0 0 0   XYZ
    dof rx ry rz
    limits (-20.0 45.0)
           (-30.0 30.0)
           (-30.0 30.0)
  end
  begin
     id 12 
     name upperback
     direction -0.00456018 0.999989 -0.000590935   
     length 2.08011   
     axis 0 0 0   XYZ
    dof rx ry rz
    limits (-20.0 45.0)
           (-30.0 30.0)
           (-30.0 30.0)
  end
  begin
     id 13 
     name thorax
     direction -0.00910382 0.999916 -0.00923765   
     length 2.07397   
     axis 0 0 0   XYZ
    dof rx ry rz
    limits (-20.0 45.0)
           (-30.0 30.0)
           (-30.0 30.0)
  end
  begin
     id 14 
     name lowerneck
     direction 0.00171967 0.99778 0.0665733   
     length 1.67556   
     axis 0 0 0   XYZ
    dof rx ry rz
    limits (-20.0 45.0)
           (-30.0 30.0)
           (-30.0 30.0)
  end
  begin
     id 15 
     name upperneck
     direction -0.0143166 0.991302 -0.130828   
     length 1.68462   
     axis 0 0 0   XYZ
    dof rx ry rz
    limits (-20.0 45.0)
           (-30.0 30.0)
           (-30.0 30.0)
  end
  begin
     id 16
     name head
     direction -0.00606378 0.998665 -0.0512995  
     length 1.69269  
     axis 0 0 0   XYZ
    dof rx ry rz
    limits (-20.0 45.0)
           (-30.0 30.0)
           (-30.0 30.0)
  end
  begin
     id 17 
     name lclavicle
     direction 0.9638 0.179341 0.197297  
     length 4.12888  
     axis 0 0 0   XYZ
    dof ry rz
    limits (-20.0 10.0)
           (0.0 20.0)
  end
  begin
     id 18 
     name lhumerus
     direction 1 -4.48972e-011 -2.47351e-027   
     length 5.01834   
     axis -180 -30 -90   XYZ
    dof rx ry rz
    limits (-60.0 90.0)
           (-90.0 90.0)
           (-90.0 90.0)
  end
  begin
     id 19
     name lradius
     direction 1 -4.48965e-011 1.51591e-026   
     length 3.4869   
     axis -180 -30 -90   XYZ
    dof rx
    limits (-10.0 170.0)
  end
  begin
     id 20
     name lwrist
     direction 1 -4.48957e-011 2.70032e-026   
     length 1.74345   
     axis -1.81515e-014 90 90   XYZ
    dof ry
    limits (-180.0 0.0)
 end
  begin
     id 21 
     name lhand
     direction 1 -4.48951e-011 5.40064e-026   
     length 0.76799   
     axis -3.44607e-014 90 90   XYZ
    dof rx rz
    limits (-90.0 90.0)
           (-45.0 45.0)
  end
  begin
     id 22 
     name lfingers
     direction 1 -4.48971e-011 1.08013e-025   
     length 0.619174   
     axis -6.89214e-014 90 90   XYZ
    dof rx
    limits (0.0 90.0)
  end
  begin
     id 23
     name lthumb
     direction 0.707107 -6.34931e-011 0.707107   
     length 0.889013   
     axis -90 45 2.85299e-015   XYZ
    dof rx rz
    limits (-45.0 45.0)
           (-45.0 45.0)
  end
  begin
     id 24 
     name rclavicle
     direction -0.961409 0.252588 0.109054   
     length 4.04305  
     axis 0 0 0   XYZ 
    dof ry rz
    limits (-10.0 20.0)
           (-20.0 0.0)
  end
  begin
     id 25 
     name rhumerus
     direction -1 -4.4897e-011 1.33872e-017  
     length 4.70164   
     axis -180 30 90   XYZ
    dof rx ry rz
    limits (-90.0 60.0)
           (-90.0 90.0)
           (-90.0 90.0)
  end
  begin
     id 26 
     name rradius
     direction -1 -4.48954e-011 1.83844e-026   
     length 3.49911   
     axis -180 30 90   XYZ
    dof rx
    limits (-10.0 170.0)
  end
  begin
     id 27 
     name rwrist
     direction -1 -4.49008e-011 2.70032e-026   
     length 1.74955   
     axis -1.81515e-014 -90 -90   XYZ
    dof ry
    limits (-180.0 0.0)
  end
  begin
     id 28
     name rhand
     direction -1 -4.48916e-011 5.40064e-026   
     length 0.739335   
     axis -3.44607e-014 -90 -90   XYZ
    dof rx rz
    limits (-90.0 90.0)
           (-45.0 45.0)
  end
  begin
     id 29
     name rfingers
     direction -1 -4.48987e-011 1.08013e-025   
     length 0.596071   
     axis -6.89214e-014 -90 -90   XYZ
    dof rx
    limits (0.0 90.0)
  end
  begin
     id 30
     name rthumb
     direction -0.707107 -6.34935e-011 0.707107   
     length 0.855843   
     axis -90 -45 -2.85299e-015   XYZ
    dof rx rz
    limits (-45.0 45.0)
           (-45.0 45.0)
  end
:hierarchy
  begin
    root lhipjoint rhipjoint lowerback
    lhipjoint lfemur
    lfemur ltibia
    ltibia lfoot
    lfoot ltoes
    rhipjoint rfemur
    rfemur rtibia
    rtibia rfoot
    rfoot rtoes
    lowerback upperback
    upperback thorax
    thorax lowerneck lclavicle rclavicle
    lowerneck upperneck
    upperneck head
    lclavicle lhumerus
    lhumerus lradius
    lradius lwrist
    lwrist lhand lthumb
    lhand lfingers
    rclavicle rhumerus
    rhumerus rradius
    rradius rwrist
    rwrist rhand rthumb
    rhand rfingers
  end

#!OML:ASF I:\salsa\salsa 7_09\Patient 1\Session 1\dancermale.ASF
:FULLY-SPECIFIED
:DEGREES
1065
root -2.70787 17.0852 -3.58513 544.758 145.858 181.059
lowerback -3.05754 -1.76585 2.39334
upperback -2.3739 -2.39779 -0.618278
thorax -0.848233 -1.23123 -2.02588
lowerneck -3.64412 3.80642 3.32445
upperneck 5.59382 5.10063 -3.24926
head 2.60099 2.51761 -1.4419
rclavicle 6.99598e-014 4.57205e-015
rhumerus -47.9256 11.1065 -101.641
rradius 105.053
rwrist 10.9305
rhand -45.8291 3.81213
rfingers 7.12502
rthumb -18.5813 -25.3204
lclavicle 6.99598e-014 4.57205e-015
lhumerus -8.51205 1.31543 97.5581
lradius 79.3393
lwrist 53.2224
lhand -26.9166 53.7237
lfingers 7.12502
lthumb -0.339581 443.703
rfemur -27.4772 4.3417 18.9779
rtibia 47.3561
rfoot -12.918 -3.37714
rtoes 1.58641
lfemur -20.465 3.88604 -22.4379
ltibia 46.3814
lfoot -17.4754 6.49508
ltoes -15.3737
1066
root -2.71733 17.114 -3.52658 544.57 145.581 180.769
lowerback -3.27712 -1.42148 2.43412
upperback -2.19915 -1.94687 -0.600556
thorax -0.52279 -1.00001 -2.03161
lowerneck -3.78727 3.42119 3.48434
upperneck 5.70593 4.5712 -3.2205
head 2.64971 2.25716 -1.47884
rclavicle -5.94195e-014 -6.31141e-015
rhumerus -47.4888 11.0923 -101.53
rradius 104.419
rwrist 10.5063
rhand -45.5055 3.79838
rfingers 7.12502
rthumb -18.27 -25.3636
lclavicle -5.94195e-014 -6.31141e-015
lhumerus -10.9256 -0.933481 97.8777
lradius 83.1706
lwrist 53.437
lhand -29.0783 52.8328
lfingers 7.12502
lthumb -2.42733 442.799
rfemur -25.6081 3.46224 19.5781
rtibia 44.5266
rfoot -13.9883 -3.88388
rtoes 2.44718
lfemur -21.8201 4.4158 -22.0425
ltibia 48.963
lfoot -15.6132 5.64194
ltoes -15.1446
1067
root -2.73679 17.1501 -3.47879 544.401 145.264 180.001
lowerback -3.57576 -1.08305 2.82204
upperback -2.17916 -1.51403 -0.42551
thorax -0.318338 -0.782832 -2.06596
lowerneck -4.08026 3.00609 3.17126
upperneck 6.12018 3.99901 -2.67181
head 2.79613 1.98018 -1.26267
rclavicle -8.96356e-014 -1.1778e-014
rhumerus -47.0735 11.4069 -101.394
rradius 103.587
rwrist 10.1927
rhand -45.3304 3.91534
rfingers 7.12502
rthumb -18.1015 -25.2624
lclavicle -8.96356e-014 -1.1778e-014
lhumerus -13.2124 -2.95423 98.0984
lradius 86.5431
lwrist 52.5988
lhand -28.0279 52.2146
lfingers 7.12502
lthumb -1.41286 442.19
rfemur -24.2202 2.7563 20.6007
rtibia 41.8074
rfoot -14.4876 -4.50697
rtoes 4.52465
lfemur -23.8406 5.01474 -21.1833
ltibia 51.8467
lfoot -13.3958 4.634
ltoes -13.7311
1068
root -2.75531 17.1857 -3.43321 544.303 145.01 179.264
lowerback -3.87215 -0.702459 3.14141
upperback -2.2304 -1.02455 -0.24129
thorax -0.180584 -0.537726 -2.04554
lowerneck -4.14699 2.58601 2.79755
upperneck 6.40614 3.42482 -2.09247
head 2.86147 1.70475 -1.03018
rclavicle -3.2075e-014 -5.46658e-016
rhumerus -46.7372 11.8809 -101.228
rradius 102.767
rwrist 9.76633
rhand -45.1941 3.82192
rfingers 7.12502
rthumb -17.9704 -25.3679
lclavicle -3.2075e-014 -5.46658e-016
lhumerus -15.4828 -5.15891 98.304
lradius 90.3464
lwrist 52.712
lhand -27.9689 52.1346
lfingers 7.12502
lthumb -1.35592 442.11
rfemur -23.0226 2.42845 21.5364
rtibia 39.2857
rfoot -14.8775 -4.97197
rtoes 5.75376
lfemur -26.1061 5.68885 -20.3957
ltibia 54.9137
lfoot -11.2717 3.95145
ltoes -12.4528
1069
root -2.77509 17.2201 -3.39185 544.201 144.759 178.56
lowerback -4.15615 -0.299713 3.32865
upperback -2.2511 -0.503831 -0.0174159
thorax -0.0127462 -0.27456 -1.90464
lowerneck -4.20862 2.12906 2.60885
upperneck 6.57682 2.80941 -1.84676
head 2.90432 1.40267 -0.941087
rclavicle -4.6066e-014 -8.94531e-016
rhumerus -46.2473 12.1849 -101.011
rradius 102.036
rwrist 9.31459
rhand -44.9376 3.45177
rfingers 7.12502
rthumb -17.7236 -25.7605
lclavicle -4.6066e-014 -8.94531e-016
lhumerus -17.4987 -7.38045 98.5146
lradius 94.0189
lwrist 52.1684
lhand -27.1736 50.6234
lfingers 7.12502
lthumb -0.587741 440.602
rfemur -21.9187 2.39763 22.3895
rtibia 36.8681
rfoot -15.3544 -4.81515
rtoes 5.01583
lfemur -28.3723 6.25752 -19.6921
ltibia 57.9857
lfoot -9.76345 3.94785
ltoes -12.169
1070
root -2.7983 17.2511 -3.35851 544.035 144.457 177.854
lowerback -4.38745 0.0705673 3.49221
upperback -2.19444 -0.0275252 0.217494
thorax 0.20171 -0.0318018 -1.73618
lowerneck -4.52812 1.64497 2.57198
upperneck 6.8083 2.15498 -1.79988
head 3.02534 1.07728 -0.944126
rclavicle -4.6792e-015 1.40392e-014
rhumerus -45.5162 12.3897 -100.794
rradius 101.412
rwrist 9.05487
rhand -44.3408 3.03929
rfingers 7.12502
rthumb -17.1493 -26.2239
lclavicle -4.6792e-015 1.40392e-014
lhumerus -19.0715 -9.50177 98.5547
lradius 97.6306
lwrist 50.9515
lhand -26.3528 48.7643
lfingers 7.12502
lthumb 0.204979 438.744
rfemur -20.8554 2.62732 23.1961
rtibia 34.5387
rfoot -15.5676 -4.74709
rtoes 5.65779
lfemur -30.3464 6.36272 -19.0255
ltibia 60.6253
lfoot -8.72769 4.53319
ltoes -11.1395
1071
root -2.81977 17.2785 -3.33322 543.838 144.106 177.273
lowerback -4.53178 0.430221 3.64762
upperback -2.06983 0.435109 0.37283
thorax 0.435778 0.204687 -1.64146
lowerneck -4.88303 1.14239 2.42084
upperneck 6.94839 1.46941 -1.58547
head 3.11857 0.739349 -0.875556
rclavicle -6.30916e-014 -1.71203e-014
rhumerus -44.6981 12.5732 -100.568
rradius 100.86
rwrist 9.0839
rhand -43.6007 2.80292
rfingers 7.12502
rthumb -16.4368 -26.5207
lclavicle -6.30916e-014 -1.71203e-014
lhumerus -20.1602 -11.5407 98.3991
lradius 101.209
lwrist 49.543
lhand -26.1928 47.0714
lfingers 7.12502
lthumb 0.359536 437.051
rfemur -19.788 2.98447 23.8479
rtibia 32.3924
rfoot -15.5797 -4.96861
rtoes 7.48936
lfemur -32.0603 6.10298 -18.4914
ltibia 62.8529
lfoot -8.10134 5.30242
ltoes -9.07
